<svg width="254" height="37" viewBox="0 0 254 37" fill="none" xmlns="http://www.w3.org/2000/svg">
<path opacity="0.5" d="M52.0773 6.22363C46.5009 6.22363 41.5155 9.09103 41.5155 14.3776C41.5155 20.44 50.3537 20.8612 50.3537 23.905C50.3537 25.1902 48.8682 26.335 46.3355 26.335C42.7355 26.335 40.0446 24.7294 40.0446 24.7294L38.89 30.07C38.89 30.07 41.9882 31.4254 46.1009 31.4254C52.2027 31.4254 56.9991 28.4194 56.9991 23.041C56.9991 16.633 48.1209 16.2298 48.1209 13.3948C48.1209 12.3904 49.3391 11.2852 51.8718 11.2852C54.7264 11.2852 57.0537 12.4534 57.0537 12.4534L58.1809 7.30003C58.1809 7.30723 55.6482 6.22543 52.0791 6.22543L52.0773 6.22363ZM1.04093 6.61603L0.908203 7.39363C0.908203 7.39363 3.25184 7.82203 5.36638 8.66983C8.0882 9.64183 8.28457 10.2106 8.74093 11.971L13.7337 31.0276H20.4246L30.7446 6.61423H24.0682L17.4391 23.212L14.7337 9.14503C14.49 7.53403 13.23 6.61423 11.69 6.61423H1.04275L1.04093 6.61603ZM33.4318 6.61603L28.1955 31.0222H34.5646L39.7773 6.61423H33.4318V6.61603ZM68.9518 6.61603C67.4191 6.61603 66.6009 7.43323 66.0027 8.84983L56.6755 31.0222H63.3537L64.6446 27.325H72.7809L73.5682 31.0222H79.4664L74.3227 6.61423H68.9518V6.61603ZM69.8246 13.2094L71.8064 22.3714H66.4973L69.8246 13.2094Z" fill="white"/>
<g clip-path="url(#clip0_561_7142)">
<g opacity="0.5">
<path opacity="0.5" d="M114.269 34.9384C114.27 34.7582 114.31 34.5803 114.389 34.4175C114.467 34.2547 114.581 34.1111 114.722 33.997C114.863 33.8829 115.029 33.8012 115.206 33.7577C115.383 33.7142 115.568 33.71 115.747 33.7455C115.926 33.7811 116.095 33.8557 116.242 33.9639C116.388 34.0721 116.508 34.2111 116.593 34.3709C116.678 34.5307 116.726 34.7072 116.733 34.8875C116.741 35.0679 116.707 35.2476 116.635 35.4134C116.539 35.6352 116.379 35.824 116.174 35.9557C115.97 36.0875 115.73 36.1563 115.486 36.1534C114.736 36.2422 114.271 35.6946 114.271 34.9384H114.269ZM117.377 32.9803H116.627V33.5427C116.474 33.3406 116.274 33.1766 116.045 33.0635C115.816 32.9505 115.564 32.8916 115.307 32.8915C114.786 32.9346 114.299 33.1699 113.945 33.5505C113.591 33.931 113.395 34.4291 113.396 34.9458C113.397 35.4616 113.593 35.9586 113.947 36.3388C114.3 36.719 114.785 36.9549 115.306 37C115.542 37.0158 115.779 36.9725 115.994 36.8742C116.209 36.7759 116.395 36.6258 116.536 36.4376V36.8964H117.377V32.9803ZM146.491 34.9384C146.492 34.6986 146.564 34.4645 146.699 34.2653C146.834 34.066 147.026 33.9107 147.251 33.8186C147.475 33.7266 147.722 33.7021 147.96 33.748C148.199 33.794 148.418 33.9084 148.591 34.077C148.764 34.247 148.881 34.4637 148.929 34.6997C148.977 34.9357 148.953 35.1804 148.86 35.4029C148.767 35.6253 148.609 35.8155 148.406 35.9494C148.203 36.0832 147.965 36.1548 147.721 36.1549C146.866 36.2437 146.491 35.6946 146.491 34.9384ZM149.612 34.9384V31.3908H148.757V33.5412C148.621 33.3425 148.438 33.1795 148.224 33.066C148.01 32.9526 147.771 32.8922 147.527 32.89C147.261 32.8954 146.998 32.9527 146.754 33.0586C146.51 33.1645 146.289 33.3169 146.105 33.507C145.921 33.6972 145.776 33.9214 145.68 34.1668C145.584 34.4122 145.538 34.6739 145.544 34.9369C145.528 35.2042 145.567 35.472 145.661 35.7235C145.754 35.975 145.899 36.2048 146.086 36.3985C146.274 36.5922 146.5 36.7456 146.75 36.8491C147 36.9526 147.27 37.004 147.541 37C147.778 37.0162 148.015 36.9731 148.23 36.8748C148.445 36.7765 148.632 36.6261 148.772 36.4376V36.8964H149.627L149.612 34.9384ZM128.023 33.7218C128.284 33.7205 128.537 33.8156 128.731 33.9883C128.925 34.161 129.047 34.399 129.073 34.6557H127.018C127.043 34.4067 127.159 34.1751 127.344 34.0036C127.528 33.832 127.77 33.7319 128.023 33.7218ZM128.128 32.89C127.606 32.9335 127.12 33.1691 126.766 33.55C126.413 33.9309 126.217 34.4291 126.218 34.9458C126.219 35.4616 126.415 35.9586 126.769 36.3388C127.122 36.719 127.607 36.9549 128.128 37C128.712 36.9964 129.278 36.7982 129.734 36.4376L129.359 35.7834C129.032 36.0287 128.631 36.1589 128.219 36.1534C128.083 36.166 127.946 36.1518 127.815 36.1117C127.684 36.0715 127.563 36.0062 127.458 35.9195C127.353 35.8328 127.267 35.7264 127.204 35.6065C127.141 35.4866 127.103 35.3556 127.091 35.221H130.094V34.9384C130.111 34.4142 129.916 33.9049 129.554 33.5214C129.192 33.1378 128.691 32.9109 128.159 32.89H128.129H128.128ZM138.533 34.9384C138.534 34.6986 138.607 34.4645 138.742 34.2653C138.877 34.066 139.069 33.9107 139.293 33.8186C139.517 33.7266 139.764 33.7021 140.003 33.748C140.241 33.794 140.461 33.9084 140.633 34.077C140.805 34.2472 140.923 34.4639 140.97 34.6997C141.017 34.9354 140.993 35.1798 140.9 35.4019C140.807 35.6241 140.65 35.8142 140.447 35.9481C140.245 36.0821 140.007 36.1541 139.763 36.1549C138.923 36.2437 138.533 35.6946 138.533 34.9384ZM141.746 34.9384V32.9803H140.891V33.5427C140.755 33.3436 140.571 33.1803 140.356 33.0668C140.142 32.9534 139.902 32.8932 139.658 32.8915C139.137 32.935 138.651 33.1704 138.297 33.5509C137.944 33.9315 137.748 34.4294 137.749 34.9458C137.749 35.4617 137.945 35.9589 138.299 36.3392C138.652 36.7194 139.137 36.9552 139.658 37C139.895 37.016 140.132 36.9729 140.347 36.8746C140.563 36.7763 140.749 36.626 140.89 36.4376V36.8964H141.745V34.9384H141.746ZM133.714 34.9384C133.692 35.3498 133.802 35.7577 134.028 36.1041C134.254 36.4505 134.585 36.7178 134.974 36.8683C135.232 36.9674 135.508 37.0133 135.784 37C136.304 37.0277 136.815 36.8583 137.212 36.5264L136.837 35.8722C136.529 36.0942 136.165 36.2215 135.785 36.2422C135.623 36.2486 135.462 36.222 135.31 36.1641C135.159 36.1062 135.022 36.0182 134.906 35.9057C134.791 35.7931 134.7 35.6584 134.64 35.5098C134.58 35.3612 134.551 35.202 134.555 35.042C134.542 34.8791 134.565 34.7154 134.622 34.562C134.679 34.4087 134.769 34.2693 134.886 34.1537C135.003 34.038 135.144 33.9488 135.299 33.8921C135.454 33.8354 135.62 33.8127 135.785 33.8254C136.171 33.811 136.547 33.9435 136.835 34.1954L137.21 33.5442C137.051 33.3228 136.835 33.1461 136.585 33.0315C136.336 32.9168 136.06 32.8681 135.785 32.89C135.505 32.8733 135.224 32.9143 134.961 33.0104C134.698 33.1065 134.457 33.2556 134.255 33.4482C134.054 33.6408 133.895 33.8728 133.788 34.1293C133.682 34.3859 133.631 34.6614 133.639 34.9384H133.714ZM144.763 32.89C144.554 32.8746 144.344 32.9197 144.16 33.0198C143.976 33.12 143.826 33.2708 143.728 33.4539V32.9803H142.873V36.8964H143.728V34.7593C143.728 34.1081 144.013 33.7218 144.583 33.7218C144.774 33.7057 144.966 33.7415 145.138 33.8254L145.423 33.0691C145.189 32.9727 144.941 32.9128 144.688 32.8915H144.763V32.89ZM121.807 33.3503C121.325 33.0639 120.763 32.9345 120.202 32.9803C119.165 32.9803 118.594 33.4539 118.594 34.1954C118.594 34.9384 119.059 35.2196 119.914 35.3084L120.29 35.412C120.77 35.5008 120.95 35.5896 120.95 35.7834C120.95 35.9758 120.665 36.2422 120.005 36.2422C119.538 36.2492 119.079 36.1205 118.685 35.8722L118.309 36.5249C118.801 36.8757 119.401 37.0429 120.005 37C121.145 37 121.807 36.4376 121.807 35.6946C121.807 34.9532 121.327 34.6557 120.307 34.5669L119.93 34.4781C119.555 34.3745 119.27 34.3745 119.27 34.1081C119.27 33.8402 119.555 33.6315 120.02 33.6315C120.457 33.6448 120.883 33.7721 121.25 34.003L121.807 33.3518V33.3503ZM132.857 32.8915C132.648 32.8757 132.439 32.9205 132.255 33.0204C132.071 33.1203 131.921 33.271 131.822 33.4539V32.9803H130.966V36.8964H131.821V34.7593C131.821 34.1081 132.106 33.7218 132.676 33.7218C132.868 33.7054 133.06 33.7412 133.232 33.8254L133.517 32.9788C133.157 32.9788 132.977 32.89 132.782 32.89H132.857V32.8915ZM125.485 32.9803H124.075V31.7638H123.218V32.9803H122.468V33.8239H123.218V35.6058C123.218 36.5397 123.593 37.0888 124.643 37.0888C125.009 37.0918 125.368 36.9941 125.681 36.8076L125.396 36.0498C125.173 36.1914 124.91 36.2588 124.645 36.2422C124.165 36.2422 124.075 35.961 124.075 35.591V33.8254H125.485V32.9788V32.9803ZM112.663 36.8964V34.4781C112.677 34.275 112.649 34.0713 112.58 33.8794C112.511 33.6876 112.403 33.5118 112.262 33.3629C112.122 33.214 111.951 33.0952 111.762 33.0138C111.573 32.9325 111.369 32.8904 111.163 32.89C110.891 32.8863 110.621 32.9431 110.374 33.056C110.127 33.169 109.909 33.3354 109.736 33.5427C109.583 33.3396 109.384 33.1749 109.154 33.0618C108.925 32.9487 108.672 32.8904 108.415 32.8915C108.193 32.8747 107.971 32.9183 107.773 33.0174C107.574 33.1166 107.407 33.2676 107.29 33.4539V32.9803H106.418V36.8964H107.273V34.7593C107.256 34.6279 107.268 34.4945 107.308 34.3681C107.348 34.2417 107.415 34.1253 107.505 34.0268C107.595 33.9283 107.705 33.8501 107.828 33.7975C107.951 33.7448 108.084 33.719 108.218 33.7218C108.775 33.7218 109.06 34.1066 109.06 34.7593V36.8964H109.915V34.7593C109.898 34.6278 109.91 34.4943 109.95 34.3678C109.99 34.2412 110.057 34.1248 110.147 34.0262C110.237 33.9277 110.347 33.8495 110.47 33.797C110.594 33.7445 110.727 33.7188 110.861 33.7218C111.431 33.7218 111.716 34.1066 111.716 34.7593V36.8964H112.663ZM122.333 14.8355C122.329 12.5943 122.838 10.381 123.823 8.36159C124.809 6.34215 126.244 4.56888 128.023 3.1746C126.16 1.73044 123.973 0.747061 121.646 0.306585C119.319 -0.133892 116.919 -0.0186865 114.647 0.642581C112.374 1.30385 110.294 2.49199 108.582 4.10779C106.87 5.72359 105.574 7.72017 104.803 9.9308C104.029 12.1422 103.801 14.5038 104.137 16.8196C104.474 19.1355 105.365 21.3387 106.738 23.2464C108.11 25.1518 109.923 26.7063 112.027 27.7803C114.131 28.8543 116.465 29.4168 118.834 29.4209C122.162 29.4451 125.401 28.3575 128.023 26.3351C126.229 24.991 124.78 23.2506 123.792 21.2537C122.804 19.2568 122.305 17.059 122.333 14.837V14.8355ZM152.045 14.8355C152.059 17.5928 151.282 20.2976 149.804 22.6381C148.702 24.3878 147.236 25.887 145.504 27.0369C143.771 28.1867 141.811 28.961 139.753 29.3087C137.695 29.6564 135.585 29.5695 133.563 29.0539C131.542 28.5383 129.654 27.6056 128.024 26.3174C129.806 24.9449 131.244 23.1858 132.225 21.1767C133.207 19.1675 133.706 16.9622 133.684 14.7319C133.702 12.5062 133.2 10.3063 132.219 8.30224C131.237 6.29821 129.802 4.54378 128.023 3.1746C130.631 1.14705 133.847 0.0305213 137.167 0C141.116 0.0699096 144.88 1.6595 147.658 4.42964C150.438 7.20252 152.012 10.9356 152.045 14.8355Z" fill="white"/>
<path opacity="0.5" d="M128.022 4.86621C126.632 6.14477 125.517 7.68631 124.743 9.39902C123.969 11.1117 123.552 12.9606 123.518 14.8355C123.566 16.7124 123.988 18.5615 124.761 20.2772C125.534 21.9929 126.642 23.5414 128.022 24.8344C129.405 23.5435 130.514 21.9954 131.287 20.2792C132.061 18.5631 132.482 16.713 132.527 14.8355C132.496 12.9599 132.082 11.1097 131.307 9.39641C130.533 7.6831 129.416 6.1421 128.022 4.86621Z" fill="white"/>
</g>
</g>
<g opacity="0.5">
<path opacity="0.5" d="M219.444 10.3077L214.583 20.808H214.091V8.0445H207.147V29.5112H212.906C214.467 29.5112 215.857 28.6111 216.521 27.2188L221.412 16.7462H221.903V29.5112H228.848V8.0445H223.003C221.499 8.0445 220.082 8.94304 219.444 10.3077ZM193.635 10.8582L190.77 20.8095H190.278L187.384 10.8582C187.146 10.0438 186.65 9.32905 185.972 8.82159C185.293 8.31413 184.469 8.04141 183.622 8.0445H176.766V29.5112H183.709V16.7477H184.202L188.195 29.5112H192.824L196.816 16.7477H197.309V29.5112H204.254V8.0445H197.396C195.66 8.0445 194.097 9.1761 193.634 10.8582H193.635ZM231.742 17.6171V29.5112H238.685V22.5498H246.152C247.685 22.5543 249.181 22.0823 250.435 21.1989C251.689 20.3155 252.638 19.0642 253.154 17.6171H231.742ZM245.949 8.04297H230.497C231.453 13.149 235.908 16.7477 241.261 16.7477H253.27C253.364 16.2502 253.412 15.7452 253.414 15.2389C253.414 11.0897 250.087 8.0445 245.95 8.0445L245.949 8.04297Z" fill="white"/>
</g>
<defs>
<clipPath id="clip0_561_7142">
<rect width="48" height="37" fill="white" transform="translate(104)"/>
</clipPath>
</defs>
</svg>
