<svg width="125" height="29" viewBox="0 0 125 29" fill="none" xmlns="http://www.w3.org/2000/svg">
<rect width="125" height="29" rx="8" fill="#1ABC9C"/>
<path d="M17.1985 20V9.09091H21.1935C21.9677 9.09091 22.6087 9.21875 23.1165 9.47443C23.6243 9.72656 24.0043 10.0692 24.2564 10.5025C24.5085 10.9322 24.6346 11.4169 24.6346 11.9567C24.6346 12.4112 24.5511 12.7947 24.3842 13.1072C24.2173 13.4162 23.9936 13.6648 23.7131 13.853C23.4361 14.0376 23.1307 14.1726 22.7969 14.2578V14.3643C23.1591 14.3821 23.5124 14.4993 23.8569 14.7159C24.2049 14.929 24.4925 15.2326 24.7198 15.6268C24.9471 16.021 25.0607 16.5004 25.0607 17.065C25.0607 17.6225 24.9293 18.1232 24.6665 18.5671C24.4073 19.0075 24.006 19.3572 23.4627 19.6165C22.9194 19.8722 22.2251 20 21.38 20H17.1985ZM18.8445 18.5884H21.2202C22.0085 18.5884 22.5732 18.4357 22.9141 18.1303C23.255 17.8249 23.4254 17.4432 23.4254 16.9851C23.4254 16.6406 23.3384 16.3246 23.1644 16.0369C22.9904 15.7493 22.7418 15.5202 22.4187 15.3498C22.0991 15.1793 21.7191 15.0941 21.2788 15.0941H18.8445V18.5884ZM18.8445 13.8104H21.0497C21.419 13.8104 21.7511 13.7393 22.0458 13.5973C22.3441 13.4553 22.5803 13.2564 22.7543 13.0007C22.9318 12.7415 23.0206 12.4361 23.0206 12.0845C23.0206 11.6335 22.8626 11.2553 22.5465 10.9499C22.2305 10.6445 21.7457 10.4918 21.0923 10.4918H18.8445V13.8104ZM28.0836 14.6307H30.4593C31.4608 14.6307 32.2314 14.8793 32.7711 15.3764C33.3109 15.8736 33.5808 16.5146 33.5808 17.2994C33.5808 17.8107 33.46 18.2706 33.2186 18.679C32.9771 19.0874 32.6238 19.4105 32.1586 19.6484C31.6934 19.8828 31.127 20 30.4593 20H26.8851V11.8182H28.4458V18.6257H30.4593C30.9174 18.6257 31.2939 18.5067 31.5886 18.2688C31.8833 18.0273 32.0307 17.7202 32.0307 17.3473C32.0307 16.9531 31.8833 16.6317 31.5886 16.3832C31.2939 16.131 30.9174 16.005 30.4593 16.005H28.0836V14.6307ZM34.742 20V11.8182H36.3347V20H34.742ZM43.7029 11.8182V13.1925H40.0434V20H38.472V11.8182H43.7029ZM48.4516 20.1651C47.6846 20.1651 47.0152 19.9893 46.4434 19.6378C45.8717 19.2862 45.4278 18.7944 45.1118 18.1623C44.7957 17.5302 44.6377 16.7915 44.6377 15.9464C44.6377 15.0977 44.7957 14.3555 45.1118 13.7198C45.4278 13.0842 45.8717 12.5906 46.4434 12.239C47.0152 11.8874 47.6846 11.7116 48.4516 11.7116C49.2187 11.7116 49.8881 11.8874 50.4598 12.239C51.0315 12.5906 51.4754 13.0842 51.7915 13.7198C52.1075 14.3555 52.2655 15.0977 52.2655 15.9464C52.2655 16.7915 52.1075 17.5302 51.7915 18.1623C51.4754 18.7944 51.0315 19.2862 50.4598 19.6378C49.8881 19.9893 49.2187 20.1651 48.4516 20.1651ZM48.4569 18.8281C48.9541 18.8281 49.366 18.6967 49.6927 18.4339C50.0194 18.1712 50.2609 17.8214 50.4172 17.3846C50.577 16.9478 50.6569 16.4666 50.6569 15.9411C50.6569 15.419 50.577 14.9396 50.4172 14.5028C50.2609 14.0625 50.0194 13.7092 49.6927 13.4428C49.366 13.1765 48.9541 13.0433 48.4569 13.0433C47.9562 13.0433 47.5407 13.1765 47.2105 13.4428C46.8838 13.7092 46.6405 14.0625 46.4807 14.5028C46.3245 14.9396 46.2464 15.419 46.2464 15.9411C46.2464 16.4666 46.3245 16.9478 46.4807 17.3846C46.6405 17.8214 46.8838 18.1712 47.2105 18.4339C47.5407 18.6967 47.9562 18.8281 48.4569 18.8281ZM53.2443 22.3597V18.6204H53.9102C54.0806 18.4641 54.2244 18.2777 54.3416 18.0611C54.4624 17.8445 54.5636 17.587 54.6452 17.2887C54.7305 16.9904 54.8015 16.6424 54.8583 16.2447C54.9151 15.8434 54.9648 15.3853 55.0075 14.8704L55.2631 11.8182H60.8242V18.6204H62.0813V22.3597H60.5259V20H54.821V22.3597H53.2443ZM55.6147 18.6204H59.2688V13.1818H56.6907L56.5202 14.8704C56.4386 15.7298 56.3356 16.4755 56.2113 17.1076C56.087 17.7362 55.8881 18.2404 55.6147 18.6204ZM66.0191 20.1811C65.5006 20.1811 65.0319 20.0852 64.6128 19.8935C64.1938 19.6982 63.8618 19.4158 63.6167 19.0465C63.3753 18.6772 63.2545 18.2244 63.2545 17.6882C63.2545 17.2266 63.3433 16.8466 63.5209 16.5483C63.6984 16.25 63.9381 16.0138 64.24 15.8398C64.5418 15.6658 64.8792 15.5344 65.252 15.4457C65.6249 15.3569 66.0049 15.2894 66.392 15.2433C66.882 15.1864 67.2797 15.1403 67.5851 15.1048C67.8905 15.0657 68.1125 15.0036 68.251 14.9183C68.3895 14.8331 68.4587 14.6946 68.4587 14.5028V14.4656C68.4587 14.0004 68.3273 13.6399 68.0645 13.3842C67.8053 13.1286 67.4182 13.0007 66.9033 13.0007C66.3671 13.0007 65.9445 13.1197 65.6356 13.3576C65.3302 13.592 65.1189 13.853 65.0017 14.1406L63.5049 13.7997C63.6824 13.3026 63.9417 12.9013 64.2826 12.5959C64.627 12.2869 65.023 12.0632 65.4704 11.9247C65.9179 11.7827 66.3884 11.7116 66.882 11.7116C67.2087 11.7116 67.555 11.7507 67.9207 11.8288C68.29 11.9034 68.6345 12.0419 68.9541 12.2443C69.2773 12.4467 69.5418 12.7362 69.7478 13.1126C69.9537 13.4854 70.0567 13.9702 70.0567 14.5668V20H68.5013V18.8814H68.4374C68.3344 19.0874 68.18 19.2898 67.974 19.4886C67.768 19.6875 67.5035 19.8526 67.1803 19.984C66.8572 20.1154 66.4701 20.1811 66.0191 20.1811ZM66.3653 18.9027C66.8057 18.9027 67.1821 18.8157 67.4946 18.6417C67.8106 18.4677 68.0503 18.2404 68.2137 17.9599C68.3806 17.6758 68.464 17.3722 68.464 17.049V15.9943C68.4072 16.0511 68.2971 16.1044 68.1338 16.1541C67.974 16.2003 67.7911 16.2411 67.5851 16.2766C67.3792 16.3086 67.1785 16.3388 66.9832 16.3672C66.7879 16.392 66.6246 16.4134 66.4932 16.4311C66.1842 16.4702 65.9019 16.5359 65.6462 16.6282C65.3941 16.7205 65.1917 16.8537 65.039 17.0277C64.8898 17.1982 64.8153 17.4254 64.8153 17.7095C64.8153 18.1037 64.9608 18.402 65.252 18.6044C65.5432 18.8033 65.9143 18.9027 66.3653 18.9027ZM80.0576 20.1491C79.2622 20.1491 78.5555 20.0053 77.9376 19.7177C77.3197 19.43 76.8314 19.0341 76.4727 18.5298C76.1176 18.0256 75.933 17.4467 75.9188 16.7933H78.4756C78.4969 17.1946 78.6602 17.5178 78.9656 17.7628C79.271 18.0043 79.635 18.125 80.0576 18.125C80.3879 18.125 80.6808 18.0522 80.9365 17.9066C81.1922 17.761 81.3928 17.5568 81.5384 17.294C81.684 17.0277 81.7551 16.7223 81.7515 16.3778C81.7551 16.0263 81.6823 15.7191 81.5331 15.4563C81.3875 15.1935 81.1851 14.9893 80.9259 14.8438C80.6702 14.6946 80.3754 14.62 80.0416 14.62C79.7256 14.6165 79.4255 14.6857 79.1414 14.8278C78.8609 14.9698 78.6478 15.1634 78.5022 15.4084L76.1744 14.9716L76.6485 9.09091H83.6478V11.2163H78.8165L78.5661 13.7891H78.6301C78.8112 13.4872 79.1024 13.2386 79.5036 13.0433C79.9085 12.8445 80.3683 12.745 80.8833 12.745C81.5367 12.745 82.1191 12.8977 82.6304 13.2031C83.1453 13.505 83.5502 13.924 83.8449 14.4602C84.1432 14.9964 84.2923 15.6108 84.2923 16.3033C84.2923 17.0526 84.1148 17.7166 83.7597 18.2955C83.4081 18.8743 82.9145 19.3288 82.2789 19.6591C81.6468 19.9858 80.9063 20.1491 80.0576 20.1491ZM90.2516 20.2663C89.2999 20.2663 88.4796 20.0408 87.7907 19.5898C87.1017 19.1353 86.5708 18.4837 86.198 17.6349C85.8251 16.7827 85.6404 15.7582 85.644 14.5614C85.6475 13.3647 85.834 12.3491 86.2033 11.5146C86.5762 10.6765 87.1053 10.0391 87.7907 9.60227C88.4796 9.16193 89.2999 8.94176 90.2516 8.94176C91.2033 8.94176 92.0236 9.16193 92.7125 9.60227C93.405 10.0391 93.9377 10.6765 94.3105 11.5146C94.6834 12.3526 94.8681 13.3683 94.8645 14.5614C94.8645 15.7617 94.6781 16.788 94.3052 17.6403C93.9324 18.4925 93.4015 19.1442 92.7125 19.5952C92.0272 20.0426 91.2069 20.2663 90.2516 20.2663ZM90.2516 18.109C90.8198 18.109 91.2797 17.8196 91.6312 17.2408C91.9828 16.6584 92.1568 15.7653 92.1532 14.5614C92.1532 13.7731 92.0733 13.1232 91.9135 12.6119C91.7537 12.0969 91.5318 11.7134 91.2477 11.4613C90.9636 11.2092 90.6316 11.0831 90.2516 11.0831C89.687 11.0831 89.2306 11.369 88.8826 11.9407C88.5346 12.5089 88.3588 13.3825 88.3553 14.5614C88.3517 15.3604 88.4281 16.0227 88.5843 16.5483C88.7441 17.0739 88.9679 17.4663 89.2555 17.7255C89.5431 17.9812 89.8752 18.109 90.2516 18.109ZM102.484 17.9545V17.3793C102.484 16.9318 102.58 16.5181 102.772 16.1381C102.967 15.7582 103.25 15.4528 103.619 15.2219C103.988 14.9911 104.439 14.8757 104.972 14.8757C105.515 14.8757 105.972 14.9911 106.341 15.2219C106.714 15.4492 106.994 15.7528 107.183 16.1328C107.374 16.5092 107.47 16.9247 107.47 17.3793V17.9545C107.47 18.402 107.374 18.8157 107.183 19.1957C106.991 19.5756 106.708 19.881 106.336 20.1119C105.963 20.3427 105.508 20.4581 104.972 20.4581C104.432 20.4581 103.978 20.3427 103.608 20.1119C103.239 19.881 102.958 19.5756 102.767 19.1957C102.578 18.8157 102.484 18.402 102.484 17.9545ZM104.184 17.3793V17.9545C104.184 18.1818 104.239 18.4002 104.349 18.6097C104.462 18.8192 104.67 18.924 104.972 18.924C105.281 18.924 105.489 18.8228 105.595 18.6204C105.702 18.4144 105.755 18.1925 105.755 17.9545V17.3793C105.755 17.1413 105.703 16.9176 105.6 16.7081C105.501 16.495 105.292 16.3885 104.972 16.3885C104.674 16.3885 104.468 16.495 104.354 16.7081C104.24 16.9176 104.184 17.1413 104.184 17.3793ZM96.8274 11.7116V11.1364C96.8274 10.6818 96.9251 10.2663 97.1204 9.88991C97.3192 9.50994 97.6033 9.20632 97.9727 8.97905C98.342 8.74822 98.7894 8.63281 99.315 8.63281C99.8583 8.63281 100.315 8.74822 100.684 8.97905C101.057 9.20632 101.339 9.50994 101.531 9.88991C101.723 10.2663 101.819 10.6818 101.819 11.1364V11.7116C101.819 12.1662 101.721 12.5817 101.526 12.9581C101.334 13.3345 101.051 13.6346 100.679 13.8583C100.306 14.082 99.8512 14.1939 99.315 14.1939C98.7788 14.1939 98.3242 14.0803 97.9513 13.853C97.582 13.6257 97.3015 13.3239 97.1097 12.9474C96.9215 12.571 96.8274 12.1591 96.8274 11.7116ZM98.5426 11.1364V11.7116C98.5426 11.9496 98.5977 12.1715 98.7077 12.3775C98.8214 12.5799 99.0238 12.6811 99.315 12.6811C99.6275 12.6811 99.8352 12.5799 99.9382 12.3775C100.045 12.1715 100.098 11.9496 100.098 11.7116V11.1364C100.098 10.8984 100.048 10.6747 99.9489 10.4652C99.8494 10.2521 99.6381 10.1456 99.315 10.1456C99.0167 10.1456 98.8125 10.2539 98.7024 10.4705C98.5959 10.6871 98.5426 10.9091 98.5426 11.1364ZM97.6317 20L105.132 9.09091H106.586L99.0859 20H97.6317Z" fill="white"/>
</svg>
