<svg width="124" height="29" viewBox="0 0 124 29" fill="none" xmlns="http://www.w3.org/2000/svg">
<rect width="124" height="29" rx="8" fill="#1ABC9C"/>
<path d="M17.1985 20V9.09091H21.1935C21.9677 9.09091 22.6087 9.21875 23.1165 9.47443C23.6243 9.72656 24.0043 10.0692 24.2564 10.5025C24.5085 10.9322 24.6346 11.4169 24.6346 11.9567C24.6346 12.4112 24.5511 12.7947 24.3842 13.1072C24.2173 13.4162 23.9936 13.6648 23.7131 13.853C23.4361 14.0376 23.1307 14.1726 22.7969 14.2578V14.3643C23.1591 14.3821 23.5124 14.4993 23.8569 14.7159C24.2049 14.929 24.4925 15.2326 24.7198 15.6268C24.9471 16.021 25.0607 16.5004 25.0607 17.065C25.0607 17.6225 24.9293 18.1232 24.6665 18.5671C24.4073 19.0075 24.006 19.3572 23.4627 19.6165C22.9194 19.8722 22.2251 20 21.38 20H17.1985ZM18.8445 18.5884H21.2202C22.0085 18.5884 22.5732 18.4357 22.9141 18.1303C23.255 17.8249 23.4254 17.4432 23.4254 16.9851C23.4254 16.6406 23.3384 16.3246 23.1644 16.0369C22.9904 15.7493 22.7418 15.5202 22.4187 15.3498C22.0991 15.1793 21.7191 15.0941 21.2788 15.0941H18.8445V18.5884ZM18.8445 13.8104H21.0497C21.419 13.8104 21.7511 13.7393 22.0458 13.5973C22.3441 13.4553 22.5803 13.2564 22.7543 13.0007C22.9318 12.7415 23.0206 12.4361 23.0206 12.0845C23.0206 11.6335 22.8626 11.2553 22.5465 10.9499C22.2305 10.6445 21.7457 10.4918 21.0923 10.4918H18.8445V13.8104ZM28.0836 14.6307H30.4593C31.4608 14.6307 32.2314 14.8793 32.7711 15.3764C33.3109 15.8736 33.5808 16.5146 33.5808 17.2994C33.5808 17.8107 33.46 18.2706 33.2186 18.679C32.9771 19.0874 32.6238 19.4105 32.1586 19.6484C31.6934 19.8828 31.127 20 30.4593 20H26.8851V11.8182H28.4458V18.6257H30.4593C30.9174 18.6257 31.2939 18.5067 31.5886 18.2688C31.8833 18.0273 32.0307 17.7202 32.0307 17.3473C32.0307 16.9531 31.8833 16.6317 31.5886 16.3832C31.2939 16.131 30.9174 16.005 30.4593 16.005H28.0836V14.6307ZM34.742 20V11.8182H36.3347V20H34.742ZM43.7029 11.8182V13.1925H40.0434V20H38.472V11.8182H43.7029ZM48.4516 20.1651C47.6846 20.1651 47.0152 19.9893 46.4434 19.6378C45.8717 19.2862 45.4278 18.7944 45.1118 18.1623C44.7957 17.5302 44.6377 16.7915 44.6377 15.9464C44.6377 15.0977 44.7957 14.3555 45.1118 13.7198C45.4278 13.0842 45.8717 12.5906 46.4434 12.239C47.0152 11.8874 47.6846 11.7116 48.4516 11.7116C49.2187 11.7116 49.8881 11.8874 50.4598 12.239C51.0315 12.5906 51.4754 13.0842 51.7915 13.7198C52.1075 14.3555 52.2655 15.0977 52.2655 15.9464C52.2655 16.7915 52.1075 17.5302 51.7915 18.1623C51.4754 18.7944 51.0315 19.2862 50.4598 19.6378C49.8881 19.9893 49.2187 20.1651 48.4516 20.1651ZM48.4569 18.8281C48.9541 18.8281 49.366 18.6967 49.6927 18.4339C50.0194 18.1712 50.2609 17.8214 50.4172 17.3846C50.577 16.9478 50.6569 16.4666 50.6569 15.9411C50.6569 15.419 50.577 14.9396 50.4172 14.5028C50.2609 14.0625 50.0194 13.7092 49.6927 13.4428C49.366 13.1765 48.9541 13.0433 48.4569 13.0433C47.9562 13.0433 47.5407 13.1765 47.2105 13.4428C46.8838 13.7092 46.6405 14.0625 46.4807 14.5028C46.3245 14.9396 46.2464 15.419 46.2464 15.9411C46.2464 16.4666 46.3245 16.9478 46.4807 17.3846C46.6405 17.8214 46.8838 18.1712 47.2105 18.4339C47.5407 18.6967 47.9562 18.8281 48.4569 18.8281ZM53.2443 22.3597V18.6204H53.9102C54.0806 18.4641 54.2244 18.2777 54.3416 18.0611C54.4624 17.8445 54.5636 17.587 54.6452 17.2887C54.7305 16.9904 54.8015 16.6424 54.8583 16.2447C54.9151 15.8434 54.9648 15.3853 55.0075 14.8704L55.2631 11.8182H60.8242V18.6204H62.0813V22.3597H60.5259V20H54.821V22.3597H53.2443ZM55.6147 18.6204H59.2688V13.1818H56.6907L56.5202 14.8704C56.4386 15.7298 56.3356 16.4755 56.2113 17.1076C56.087 17.7362 55.8881 18.2404 55.6147 18.6204ZM66.0191 20.1811C65.5006 20.1811 65.0319 20.0852 64.6128 19.8935C64.1938 19.6982 63.8618 19.4158 63.6167 19.0465C63.3753 18.6772 63.2545 18.2244 63.2545 17.6882C63.2545 17.2266 63.3433 16.8466 63.5209 16.5483C63.6984 16.25 63.9381 16.0138 64.24 15.8398C64.5418 15.6658 64.8792 15.5344 65.252 15.4457C65.6249 15.3569 66.0049 15.2894 66.392 15.2433C66.882 15.1864 67.2797 15.1403 67.5851 15.1048C67.8905 15.0657 68.1125 15.0036 68.251 14.9183C68.3895 14.8331 68.4587 14.6946 68.4587 14.5028V14.4656C68.4587 14.0004 68.3273 13.6399 68.0645 13.3842C67.8053 13.1286 67.4182 13.0007 66.9033 13.0007C66.3671 13.0007 65.9445 13.1197 65.6356 13.3576C65.3302 13.592 65.1189 13.853 65.0017 14.1406L63.5049 13.7997C63.6824 13.3026 63.9417 12.9013 64.2826 12.5959C64.627 12.2869 65.023 12.0632 65.4704 11.9247C65.9179 11.7827 66.3884 11.7116 66.882 11.7116C67.2087 11.7116 67.555 11.7507 67.9207 11.8288C68.29 11.9034 68.6345 12.0419 68.9541 12.2443C69.2773 12.4467 69.5418 12.7362 69.7478 13.1126C69.9537 13.4854 70.0567 13.9702 70.0567 14.5668V20H68.5013V18.8814H68.4374C68.3344 19.0874 68.18 19.2898 67.974 19.4886C67.768 19.6875 67.5035 19.8526 67.1803 19.984C66.8572 20.1154 66.4701 20.1811 66.0191 20.1811ZM66.3653 18.9027C66.8057 18.9027 67.1821 18.8157 67.4946 18.6417C67.8106 18.4677 68.0503 18.2404 68.2137 17.9599C68.3806 17.6758 68.464 17.3722 68.464 17.049V15.9943C68.4072 16.0511 68.2971 16.1044 68.1338 16.1541C67.974 16.2003 67.7911 16.2411 67.5851 16.2766C67.3792 16.3086 67.1785 16.3388 66.9832 16.3672C66.7879 16.392 66.6246 16.4134 66.4932 16.4311C66.1842 16.4702 65.9019 16.5359 65.6462 16.6282C65.3941 16.7205 65.1917 16.8537 65.039 17.0277C64.8898 17.1982 64.8153 17.4254 64.8153 17.7095C64.8153 18.1037 64.9608 18.402 65.252 18.6044C65.5432 18.8033 65.9143 18.9027 66.3653 18.9027ZM75.8815 20V18.1037L79.8605 14.62C80.1588 14.3501 80.4127 14.1033 80.6222 13.8796C80.8318 13.6523 80.9916 13.4251 81.1017 13.1978C81.2117 12.967 81.2668 12.7166 81.2668 12.4467C81.2668 12.1449 81.2011 11.8874 81.0697 11.6744C80.9383 11.4577 80.7572 11.2908 80.5264 11.1737C80.2955 11.0565 80.031 10.9979 79.7327 10.9979C79.4308 10.9979 79.1663 11.06 78.939 11.1843C78.7117 11.305 78.5342 11.4808 78.4063 11.7116C78.282 11.9425 78.2199 12.223 78.2199 12.5533H75.7217C75.7217 11.8111 75.8886 11.1701 76.2224 10.6303C76.5562 10.0906 77.0249 9.67507 77.6286 9.38388C78.2359 9.08913 78.9408 8.94176 79.7433 8.94176C80.5708 8.94176 81.2899 9.08026 81.9007 9.35724C82.5115 9.63423 82.9838 10.0213 83.3176 10.5185C83.6549 11.0121 83.8236 11.5856 83.8236 12.239C83.8236 12.6545 83.7401 13.0664 83.5732 13.4748C83.4063 13.8832 83.1063 14.3342 82.673 14.8278C82.2433 15.3214 81.6325 15.9126 80.8406 16.6016L79.5356 17.8054V17.8746H83.9568V20H75.8815ZM89.623 20.1491C88.8276 20.1491 88.1209 20.0053 87.503 19.7177C86.8851 19.43 86.3968 19.0341 86.0382 18.5298C85.6831 18.0256 85.4984 17.4467 85.4842 16.7933H88.041C88.0623 17.1946 88.2257 17.5178 88.5311 17.7628C88.8365 18.0043 89.2005 18.125 89.623 18.125C89.9533 18.125 90.2463 18.0522 90.502 17.9066C90.7576 17.761 90.9583 17.5568 91.1039 17.294C91.2495 17.0277 91.3205 16.7223 91.3169 16.3778C91.3205 16.0263 91.2477 15.7191 91.0985 15.4563C90.9529 15.1935 90.7505 14.9893 90.4913 14.8438C90.2356 14.6946 89.9409 14.62 89.6071 14.62C89.291 14.6165 88.9909 14.6857 88.7069 14.8278C88.4263 14.9698 88.2132 15.1634 88.0676 15.4084L85.7399 14.9716L86.214 9.09091H93.2132V11.2163H88.3819L88.1316 13.7891H88.1955C88.3766 13.4872 88.6678 13.2386 89.0691 13.0433C89.4739 12.8445 89.9338 12.745 90.4487 12.745C91.1021 12.745 91.6845 12.8977 92.1958 13.2031C92.7108 13.505 93.1156 13.924 93.4103 14.4602C93.7086 14.9964 93.8578 15.6108 93.8578 16.3033C93.8578 17.0526 93.6802 17.7166 93.3251 18.2955C92.9735 18.8743 92.4799 19.3288 91.8443 19.6591C91.2122 19.9858 90.4718 20.1491 89.623 20.1491ZM101.415 17.9545V17.3793C101.415 16.9318 101.511 16.5181 101.703 16.1381C101.898 15.7582 102.18 15.4528 102.55 15.2219C102.919 14.9911 103.37 14.8757 103.903 14.8757C104.446 14.8757 104.902 14.9911 105.272 15.2219C105.644 15.4492 105.925 15.7528 106.113 16.1328C106.305 16.5092 106.401 16.9247 106.401 17.3793V17.9545C106.401 18.402 106.305 18.8157 106.113 19.1957C105.921 19.5756 105.639 19.881 105.266 20.1119C104.893 20.3427 104.439 20.4581 103.903 20.4581C103.363 20.4581 102.908 20.3427 102.539 20.1119C102.17 19.881 101.889 19.5756 101.697 19.1957C101.509 18.8157 101.415 18.402 101.415 17.9545ZM103.114 17.3793V17.9545C103.114 18.1818 103.169 18.4002 103.279 18.6097C103.393 18.8192 103.601 18.924 103.903 18.924C104.212 18.924 104.419 18.8228 104.526 18.6204C104.632 18.4144 104.686 18.1925 104.686 17.9545V17.3793C104.686 17.1413 104.634 16.9176 104.531 16.7081C104.432 16.495 104.222 16.3885 103.903 16.3885C103.604 16.3885 103.398 16.495 103.285 16.7081C103.171 16.9176 103.114 17.1413 103.114 17.3793ZM95.7581 11.7116V11.1364C95.7581 10.6818 95.8557 10.2663 96.051 9.88991C96.2499 9.50994 96.534 9.20632 96.9033 8.97905C97.2726 8.74822 97.7201 8.63281 98.2456 8.63281C98.789 8.63281 99.2453 8.74822 99.6146 8.97905C99.9875 9.20632 100.27 9.50994 100.462 9.88991C100.653 10.2663 100.749 10.6818 100.749 11.1364V11.7116C100.749 12.1662 100.652 12.5817 100.456 12.9581C100.264 13.3345 99.9822 13.6346 99.6093 13.8583C99.2364 14.082 98.7819 14.1939 98.2456 14.1939C97.7094 14.1939 97.2549 14.0803 96.882 13.853C96.5127 13.6257 96.2322 13.3239 96.0404 12.9474C95.8522 12.571 95.7581 12.1591 95.7581 11.7116ZM97.4733 11.1364V11.7116C97.4733 11.9496 97.5283 12.1715 97.6384 12.3775C97.752 12.5799 97.9545 12.6811 98.2456 12.6811C98.5582 12.6811 98.7659 12.5799 98.8689 12.3775C98.9754 12.1715 99.0287 11.9496 99.0287 11.7116V11.1364C99.0287 10.8984 98.979 10.6747 98.8795 10.4652C98.7801 10.2521 98.5688 10.1456 98.2456 10.1456C97.9474 10.1456 97.7432 10.2539 97.6331 10.4705C97.5265 10.6871 97.4733 10.9091 97.4733 11.1364ZM96.5624 20L104.062 9.09091H105.517L98.0166 20H96.5624Z" fill="white"/>
</svg>
