<svg width="80" height="86" viewBox="0 0 80 86" fill="none" xmlns="http://www.w3.org/2000/svg">
<g clip-path="url(#clip0_207_3306)">
<path d="M77.3091 59.2668C74.3663 57.8182 71.5257 56.1679 68.5988 54.6879C67.7239 54.2462 67.4239 53.7574 67.433 52.7842C67.4875 47.2456 67.4625 41.7049 67.4512 36.1663C67.4444 33.397 65.4173 30.0268 61.4382 30.2735C61.1678 30.2892 60.8928 30.2735 60.5701 30.2735C60.5701 29.1164 60.6247 28.0805 60.5588 27.0512C60.4383 25.1856 60.4656 23.2729 60.0497 21.4656C57.5682 10.6755 50.9281 3.4799 40.0157 0.863099C29.1169 -1.75146 19.8725 1.64343 12.721 10.1508C8.76011 14.862 6.95123 20.4162 6.92396 26.531C6.91941 27.7531 6.92396 28.9774 6.92396 30.278C6.41492 30.278 5.99679 30.278 5.57866 30.278C3.66069 30.278 2.20177 31.1188 1.13371 32.6526C0.372429 33.7468 0.0338311 34.9779 0.0292862 36.2941C0.0179238 39.1935 0.0111064 58.316 0.0247412 62.8074C0.00201654 66.5768 -0.0320705 70.3484 0.0747356 74.1155C0.176997 77.6987 2.55173 79.7975 6.16722 79.7975C22.988 79.7975 39.8111 79.802 56.632 79.7841C57.2592 79.7841 57.6523 79.9567 58.05 80.4523C59.952 82.8269 62.2086 84.7889 65.0673 86.002H66.4308C67.4103 85.4549 68.4442 84.984 69.3555 84.345C72.4574 82.1744 74.6526 79.2302 76.457 75.9878C78.5613 72.2095 79.8429 68.2047 79.9929 63.8591C80.0657 61.7221 79.3066 60.2534 77.3069 59.269L77.3091 59.2668ZM21.42 6.96671C29.7986 1.87215 38.4976 2.02238 46.7126 7.37706C54.939 12.7407 57.8068 20.7324 57.0342 30.2309H52.3165C52.3165 28.4998 52.4188 26.8203 52.3006 25.1542C51.6439 15.9181 43.9198 8.47132 34.689 8.11254C25.0946 7.74032 16.7865 14.3866 15.3253 23.6295C15.1594 24.6744 15.1458 25.7462 15.1117 26.8068C15.0776 27.9213 15.1048 29.038 15.1048 30.2129H10.4167C9.68501 20.414 12.7369 12.2474 21.4223 6.96671H21.42ZM48.7919 30.2488H18.6522C17.2137 20.0686 23.2516 12.7026 31.7939 11.6465C40.2611 10.6015 47.4466 16.028 48.7465 24.3291C49.0442 26.2328 48.7897 28.2217 48.7897 30.2466L48.7919 30.2488ZM54.4413 76.4183C38.2159 76.4183 21.9904 76.4138 5.765 76.4296C4.76966 76.4296 4.09928 76.0057 3.79022 75.1469C3.56979 74.5325 3.48344 73.8419 3.48117 73.1827C3.45844 69.6106 3.4698 66.0364 3.46299 62.4621C3.47662 57.5828 3.46299 39.5657 3.46753 36.9466C3.46753 36.5565 3.46526 36.1596 3.51525 35.7739C3.69251 34.3926 4.52423 33.6504 5.88544 33.6504C24.4697 33.6504 43.0517 33.6504 61.6359 33.6504C62.779 33.6504 63.4675 34.0989 63.8039 35.1662C63.9675 35.6887 64.0266 36.265 64.0288 36.8166C64.0447 42.2722 64.0288 47.7277 64.0538 53.1833C64.0561 53.8179 63.8925 54.1677 63.2925 54.4772C60.252 56.0445 57.2796 57.751 54.205 59.2533C52.1234 60.2691 51.3757 61.8141 51.4893 63.9958C51.628 66.6418 52.0916 69.2182 53.0596 71.687C53.6777 73.2656 54.4163 74.7971 55.1298 76.4183H54.4458H54.4413ZM76.566 63.8703C76.2229 69.4581 74.1254 74.0258 70.9121 78.1517C69.6782 79.737 68.2238 81.0958 66.5081 82.1923C65.9423 82.5533 65.5241 82.5242 64.9742 82.1789C61.9654 80.2863 59.877 77.5978 58.1659 74.5908C56.2547 71.2296 55.0253 67.6688 54.939 63.7671C54.923 62.989 55.1707 62.5764 55.8729 62.2154C58.9658 60.6234 62.0313 58.9842 65.0878 57.3294C65.5718 57.067 65.9332 57.067 66.4127 57.3249C69.3464 58.9125 72.2779 60.5045 75.2526 62.0159C76.2252 62.5114 76.8728 63.0272 76.566 63.8703Z" fill="#357EFE"/>
<path d="M27.3791 54.9212C31.5059 51.2079 30.9196 45.6357 27.9109 42.5121C24.7317 39.2114 19.4164 38.9087 15.894 41.8865C14.2124 43.3082 13.183 45.1087 12.9035 47.2771C12.5012 50.3805 13.5875 52.9659 15.944 55.0983C15.6782 55.2598 15.4895 55.3741 15.3032 55.4907C11.6218 57.8272 9.39478 61.0539 9.05391 65.4265C8.84484 68.1061 10.7287 70.2183 13.4284 70.2363C18.8528 70.2699 24.2749 70.2677 29.6993 70.2363C32.2513 70.2228 34.0738 68.346 34.067 65.8436C34.0579 63.1393 33.1648 60.7019 31.4036 58.6726C30.222 57.3115 28.7585 56.1881 27.3836 54.9212H27.3791ZM21.5798 43.1983C24.5272 43.2095 26.9064 45.6021 26.8769 48.5261C26.8473 51.3873 24.3999 53.735 21.5002 53.6857C18.5528 53.6363 16.2417 51.3065 16.2599 48.405C16.2781 45.5191 18.6619 43.1893 21.5798 43.1983ZM29.3516 66.8705C26.7405 66.8773 24.1295 66.8728 21.5161 66.8728C18.9619 66.8728 16.4053 66.8773 13.8511 66.8728C12.7103 66.8728 12.4513 66.588 12.5126 65.4624C12.7103 61.8724 15.7463 58.3497 19.5027 57.3519C22.991 56.4258 26.9087 58.0447 29.1357 61.3342C30.0015 62.6146 30.5469 64.0071 30.6265 65.5521C30.6787 66.5521 30.3629 66.8705 29.3516 66.8728V66.8705Z" fill="#357EFE"/>
<path d="M38.1961 48.2304C40.639 48.2372 43.0797 48.2304 45.5226 48.2304C47.9359 48.2304 50.3493 48.2349 52.7649 48.2304C54.0466 48.2282 54.8488 47.5532 54.8283 46.515C54.8079 45.5038 54.0284 44.8647 52.7854 44.8647C47.9291 44.8602 43.0729 44.8602 38.2166 44.8647C36.9508 44.8647 36.2214 45.4881 36.2168 46.5375C36.2123 47.5914 36.944 48.2259 38.1961 48.2304Z" fill="#357EFE"/>
<path d="M48.1171 53.9303C44.8015 53.9236 41.4837 53.9236 38.1682 53.9303C36.9274 53.9326 36.198 54.5851 36.2162 55.6412C36.2321 56.657 36.9547 57.2871 38.1478 57.2938C39.8203 57.305 41.4928 57.2961 43.1654 57.2961C44.8084 57.2961 46.4536 57.3028 48.0966 57.2961C49.3578 57.2893 50.0873 56.6705 50.0918 55.6211C50.0987 54.5694 49.3669 53.9326 48.1171 53.9303Z" fill="#357EFE"/>
<path d="M69.4244 65.4761C69.1744 65.7048 68.9517 65.9605 68.704 66.1914C67.2769 67.5099 65.8453 68.8239 64.3432 70.2052C64.2091 70.0819 63.9614 69.8509 63.7137 69.6222C63.466 69.3935 63.2228 69.1558 62.9661 68.936C62.0957 68.1849 61.0776 68.1871 60.3959 68.936C59.7369 69.6603 59.8073 70.6268 60.6163 71.3981C61.4935 72.2345 62.3866 73.0574 63.2933 73.8624C64.2227 74.6898 65.084 74.654 65.9884 73.7705C66.6543 73.1202 67.3042 72.4565 67.9587 71.7928C69.2653 70.4698 70.5856 69.158 71.8696 67.8126C72.5922 67.057 72.5604 66.0771 71.8696 65.4111C71.1879 64.7563 70.188 64.7788 69.4244 65.4761Z" fill="#357EFE"/>
</g>
<defs>
<clipPath id="clip0_207_3306">
<rect width="80" height="86" fill="white"/>
</clipPath>
</defs>
</svg>
