<svg width="80" height="80" viewBox="0 0 80 80" fill="none" xmlns="http://www.w3.org/2000/svg">
<g clip-path="url(#clip0_207_3294)">
<path d="M0 23.9151C0.498619 21.5418 1.88106 19.6087 3.12663 17.6052C5.85828 13.2088 8.62122 8.83001 11.3216 4.416C13.1577 1.41658 15.7759 -0.00583762 19.2878 3.2072e-05C33.0809 0.027424 46.8741 0.027424 60.6673 3.2072e-05C64.1791 -0.00779418 66.7973 1.41658 68.6374 4.41208C71.7796 9.53241 74.9551 14.6332 78.16 19.7163C79.3919 21.669 80.0743 23.7214 79.9707 26.0517C79.8964 27.7402 79.9316 29.4365 79.9609 31.127C80.0117 33.9601 79.0164 36.306 76.8264 38.1276C76.7697 38.1746 76.7287 38.245 76.7228 38.2509C77.4443 39.1548 78.3164 39.9531 78.8092 40.9431C79.3645 42.0564 79.8084 43.3242 79.8885 44.553C80.0508 47.0671 80.0137 49.6028 79.9022 52.1229C79.8573 53.1579 79.4877 54.2066 79.1142 55.1908C78.7642 56.1123 77.8354 56.4352 76.9946 56.1065C76.1557 55.7797 75.7119 54.9247 76.0775 53.9953C76.6192 52.6199 76.6583 51.2111 76.6368 49.777C76.6094 48.0337 76.6896 46.2826 76.5429 44.551C76.318 41.8979 74.3236 40.1194 71.6604 40.0098C71.4785 40.002 71.2967 40.0059 71.1148 40.0059C50.3468 40.0059 29.5789 40.0059 8.81285 40.0059C6.09293 40.0059 4.17862 41.3579 3.51771 43.7351C3.47665 43.8838 3.42972 44.0384 3.42776 44.191C3.40039 46.7658 3.24005 49.3485 3.39648 51.9135C3.57832 54.9286 5.67448 56.67 8.78547 56.6778C13.4177 56.6895 18.05 56.6817 22.6823 56.6817C26.9508 56.6817 31.2175 56.6817 35.486 56.6837C35.8243 56.6837 36.1665 56.6837 36.497 56.7365C37.2302 56.8539 37.7484 57.4389 37.8129 58.1726C37.8833 58.9611 37.4785 59.6439 36.7355 59.867C36.3699 59.9766 35.969 60 35.5818 60C26.6302 60.0079 17.6765 60.002 8.72485 60.0079C6.07729 60.0079 4.16298 61.3872 3.51184 63.741C3.47078 63.8897 3.42581 64.0442 3.42385 64.1988C3.39452 66.7482 3.23614 69.3055 3.38083 71.8451C3.55486 74.9051 5.6471 76.6739 8.78938 76.6797C15.6332 76.6895 22.4789 76.6836 29.3227 76.6836C29.5828 76.6836 29.8428 76.6758 30.1029 76.6934C31.0102 76.7482 31.5499 77.1689 31.7532 77.9652C31.9468 78.7243 31.634 79.3759 30.8557 79.8415C30.7697 79.8924 30.6915 79.9531 30.6093 80.0079H7.18402C7.01977 79.9531 6.85748 79.8846 6.68932 79.8455C3.57441 79.1059 1.48999 77.2158 0.410627 74.2125C0.248332 73.7586 0.136876 73.2851 0.00195537 72.8214V63.9171C0.50644 61.7179 1.46262 59.7868 3.43363 58.3291C2.86853 57.8028 2.32689 57.3606 1.86151 56.85C0.821255 55.7015 0.416494 54.2536 0 52.8175V43.9132C0.504485 41.714 1.46066 39.7829 3.43167 38.3252C2.86657 37.7989 2.32493 37.3567 1.85956 36.8461C0.821255 35.7054 0.416494 34.2556 0 32.8194V23.9151ZM39.9775 20.0098C29.6473 20.0098 19.319 20.0098 8.98883 20.0137C8.5215 20.0137 8.0483 20.0216 7.58879 20.092C5.30296 20.4442 3.55682 22.1738 3.4219 24.4845C3.28111 26.9224 3.32217 29.3739 3.36519 31.8177C3.37692 32.4966 3.5705 33.2225 3.86772 33.8349C4.89624 35.9539 6.72256 36.6934 8.98687 36.6915C29.6453 36.6797 50.3058 36.6856 70.9642 36.6856C71.1461 36.6856 71.3279 36.6915 71.5098 36.6817C74.1593 36.5545 76.3454 34.8562 76.494 32.5142C76.6602 29.8983 76.5644 27.2648 76.5683 24.639C76.5683 24.3319 76.5058 24.0169 76.4236 23.7195C75.7784 21.3931 73.8738 20.0137 71.2771 20.0118C60.8433 20.0059 50.4094 20.0098 39.9756 20.0098H39.9775ZM7.63376 16.666H72.2998C72.1296 16.3784 72.0045 16.1573 71.8696 15.9402C69.8516 12.6923 67.7985 9.46785 65.8275 6.19256C64.6367 4.21251 62.9648 3.31054 60.6692 3.32228C54.0601 3.35554 47.4509 3.33402 40.8418 3.33402C33.6089 3.33402 26.374 3.3438 19.1411 3.32815C16.9746 3.32228 15.3555 4.19099 14.2194 6.05364C12.4205 9.00805 10.5746 11.9331 8.74832 14.8699C8.39244 15.4412 8.04048 16.0126 7.63376 16.668V16.666Z" fill="#357EFE"/>
<path d="M40.6029 80.0001C38.9955 79.6284 37.5134 79.0453 36.215 77.9536C32.3082 74.6685 32.3805 68.2549 36.4712 65.1987C37.3667 64.5296 38.4656 64.1167 39.5039 63.6608C39.8774 63.4965 40.0847 63.3693 40.1492 62.9311C41.3713 54.6724 48.7646 49.0434 56.9869 50.1703C61.0032 50.7201 64.2745 52.665 66.7579 55.8855C67.1509 56.3961 67.4892 56.7248 68.2518 56.717C74.329 56.6446 79.4111 61.3228 79.9214 67.3803C80.4318 73.4339 76.1026 78.9162 70.0742 79.8514C69.9275 79.8749 69.7906 79.9492 69.6479 80.0001H40.6029ZM55.1625 76.6779C59.4037 76.6779 63.6449 76.6779 67.8861 76.6779C67.9389 76.6779 67.9897 76.6779 68.0425 76.6779C73.4198 76.6231 77.1976 72.346 76.523 67.0751C76.0009 62.9937 71.8281 59.5384 67.8646 60.0725C66.2964 60.2838 65.3637 59.8612 64.5248 58.519C62.1451 54.7096 57.3838 52.7139 52.9725 53.52C47.6207 54.5002 43.7725 58.7851 43.3599 64.2283C43.2074 66.2435 42.9493 66.5116 40.9509 66.7307C38.1469 67.0398 36.086 70.0432 36.7918 72.7941C37.4195 75.2378 39.3319 76.6661 42.0498 76.674C46.4201 76.6877 50.7923 76.6779 55.1625 76.6779Z" fill="#357EFE"/>
<path d="M55.0159 43.3281C59.2278 43.3281 63.4397 43.3281 67.6515 43.3281C69.1337 43.3281 69.9237 43.8975 69.9491 44.9736C69.9765 46.0693 69.1494 46.6836 67.6379 46.6836C59.1887 46.6836 50.7376 46.6836 42.2885 46.6836C40.8063 46.6836 40.0163 46.1143 39.9909 45.0382C39.9635 43.9425 40.7906 43.3281 42.3021 43.3281C46.5394 43.3281 50.7787 43.3281 55.0159 43.3281Z" fill="#357EFE"/>
<path d="M11.6854 53.3146C8.91664 53.3303 6.67775 51.0939 6.68557 48.3235C6.69339 45.596 8.90687 43.3675 11.6366 43.3401C14.3506 43.3127 16.6716 45.6312 16.6579 48.3528C16.6423 51.0763 14.4151 53.299 11.6874 53.3146H11.6854ZM13.2986 48.345C13.3025 47.4371 12.5947 46.7152 11.6874 46.7034C10.7664 46.6897 9.98427 47.4665 10.0058 48.3704C10.0273 49.2372 10.8134 50.0022 11.6718 49.9924C12.5536 49.9826 13.2928 49.2333 13.2967 48.345H13.2986Z" fill="#357EFE"/>
<path d="M11.6486 73.3145C8.87976 73.3086 6.65846 71.0547 6.68779 68.2842C6.71712 65.5548 8.96775 63.3223 11.674 63.3399C14.39 63.3576 16.623 65.5861 16.6543 68.3096C16.6875 71.0351 14.4017 73.3204 11.6486 73.3126V73.3145ZM13.2969 68.3272C13.293 67.4213 12.5754 66.7052 11.672 66.7013C10.7823 66.6955 10.0295 67.4233 10.008 68.3096C9.98845 69.2018 10.798 70.0118 11.6896 69.9923C12.5754 69.9727 13.3028 69.2194 13.2969 68.3292V68.3272Z" fill="#357EFE"/>
<path d="M54.9616 23.3301C59.1734 23.3301 63.3853 23.3301 67.5972 23.3301C69.136 23.3301 69.9417 23.9053 69.9495 24.999C69.9573 26.0927 69.1399 26.6856 67.6148 26.6856C59.191 26.6856 50.7673 26.6856 42.3436 26.6856C40.8047 26.6856 39.9991 26.1104 39.9913 25.0166C39.9834 23.9229 40.8008 23.3301 42.326 23.3301C46.5378 23.3301 50.7497 23.3301 54.9616 23.3301Z" fill="#357EFE"/>
<path d="M54.9284 33.3298C50.7654 33.3298 46.6005 33.3298 42.4375 33.3298C42.2029 33.3298 41.9682 33.3357 41.7355 33.322C40.7051 33.2633 40.0031 32.602 39.9914 31.6902C39.9796 30.7765 40.6796 30.0878 41.7023 30.0135C41.8842 29.9998 42.066 30.0076 42.2479 30.0076C50.7302 30.0076 59.2146 30.0076 67.697 30.0135C68.0822 30.0135 68.485 30.0389 68.8487 30.1504C69.5389 30.3578 69.9965 31.0876 69.9437 31.7744C69.887 32.5237 69.3278 33.1616 68.5847 33.277C68.2523 33.3298 67.9101 33.3259 67.5738 33.3279C63.358 33.3318 59.1422 33.3298 54.9265 33.3298H54.9284Z" fill="#357EFE"/>
<path d="M11.6815 33.3184C8.91274 33.3321 6.6758 31.0977 6.68558 28.3252C6.69536 25.5997 8.92252 23.3575 11.6385 23.3438C14.3663 23.3301 16.6638 25.6271 16.656 28.3604C16.6482 31.0722 14.4073 33.3066 11.6815 33.3184ZM11.6659 26.7052C10.7762 26.7013 10.0234 27.433 10.0058 28.3174C9.9882 29.2076 10.8036 30.0177 11.6913 29.9961C12.5771 29.9746 13.3006 29.2194 13.2947 28.3291C13.2889 27.4232 12.5712 26.7091 11.6659 26.7052Z" fill="#357EFE"/>
</g>
<defs>
<clipPath id="clip0_207_3294">
<rect width="80" height="80" fill="white"/>
</clipPath>
</defs>
</svg>
