<svg width="80" height="86" viewBox="0 0 80 86" fill="none" xmlns="http://www.w3.org/2000/svg">
<g clip-path="url(#clip0_207_3286)">
<path d="M0.0187931 25.4478C0.0187931 24.3272 0.00716788 23.2089 0.0187931 22.0883C0.0583188 18.991 2.06715 16.6255 5.16178 16.2021C17.2892 14.5362 27.7193 9.36337 36.78 1.32345C38.8005 -0.469077 41.279 -0.441464 43.3529 1.41089C49.9932 7.33844 57.524 11.7519 66.1058 14.2808C68.8981 15.1045 71.7858 15.6522 74.6642 16.14C77.7542 16.6647 79.9793 18.8323 79.9955 21.8789C80.0606 33.6925 78.3889 45.2209 73.9063 56.2407C70.8884 63.657 66.6173 70.2565 60.5722 75.6456C54.8549 80.7424 48.1913 84.0721 40.7582 85.9221C40.2281 86.0533 39.598 86.005 39.0609 85.8669C24.5154 82.1185 14.3131 73.2156 7.8007 59.9684C4.5689 53.3919 2.50891 46.4404 1.41149 39.2312C0.71398 34.6705 0.537277 30.0361 0.0187931 25.4478C0.0838942 25.4386 -0.0463081 25.457 0.0187931 25.4478ZM75.8361 25.5399C75.8361 24.4192 75.85 23.3009 75.8314 22.1803C75.8128 21.0091 75.3036 20.4706 74.1364 20.2796C72.6507 20.0357 71.1581 19.8194 69.6886 19.4996C58.7726 17.1295 49.2353 12.1016 40.9116 4.77045C40.2304 4.17217 39.8444 4.13535 39.1423 4.75204C29.6747 13.0704 18.7633 18.4043 6.18248 20.2497C4.54565 20.489 4.19689 20.917 4.19689 22.5807C4.19224 27.6983 4.5689 32.7882 5.38034 37.8437C6.54286 45.0759 8.50054 52.0734 11.8254 58.6453C17.6775 70.215 26.6196 78.1813 39.3724 81.6628C39.7212 81.7572 40.1327 81.8262 40.4675 81.7342C47.152 79.9324 53.1227 76.8191 58.2076 72.1272C64.7805 66.0593 68.933 58.521 71.6928 50.159C74.3317 42.1628 75.5338 33.9249 75.8361 25.5376V25.5399Z" fill="#357EFE"/>
<path d="M39.5886 53.341C37.9494 53.2467 36.3986 52.9452 34.9641 52.179C33.9992 51.6635 33.483 49.5166 34.1643 48.6859C34.2945 48.5272 34.8594 48.5433 35.1105 48.6813C36.3916 49.3832 37.703 50.0022 39.1956 49.9906C39.9071 49.9837 40.6651 49.9193 41.3161 49.6662C42.9715 49.0219 43.2738 47.0269 41.9136 45.8948C41.4347 45.4944 40.8511 45.2067 40.2861 44.9191C39.3863 44.4612 38.44 44.0884 37.5518 43.6075C34.9385 42.1969 33.862 40.0293 34.3921 37.3417C34.8827 34.8634 36.8194 33.2182 39.6932 32.9006C41.3254 32.7212 42.9227 32.8868 44.4758 33.4805C45.4128 33.8395 45.8197 34.4055 45.8011 35.4249C45.7662 37.4636 45.7709 37.4291 43.9224 36.6974C42.8762 36.2832 41.7044 36.0899 40.5721 36.0094C39.5397 35.9357 38.7376 36.6077 38.4912 37.4061C38.1982 38.3565 38.5005 39.2424 39.463 39.8614C40.1629 40.3101 40.9417 40.6391 41.6904 41.0119C42.3879 41.3594 43.1064 41.6677 43.7946 42.0336C46.0685 43.2416 47.1915 45.1032 46.9287 47.6781C46.6683 50.2208 45.0268 52.1398 42.4832 52.8371C41.5439 53.0948 40.5535 53.1799 39.5886 53.341Z" fill="#357EFE"/>
<path d="M23.2156 53.297C21.6462 53.2441 20.1535 52.945 18.7608 52.2362C17.7122 51.7024 17.1751 49.6637 17.8099 48.6903C18.1447 48.1772 18.519 48.4947 18.8561 48.6903C20.0954 49.4082 21.3904 50.0042 22.8529 49.9812C23.6178 49.9697 24.4386 49.8869 25.1291 49.5946C26.6381 48.9549 26.931 47.0243 25.6801 45.9796C25.0059 45.4182 24.1642 45.0454 23.3783 44.6266C22.4623 44.1388 21.4765 43.7637 20.5999 43.2184C18.4911 41.9022 17.6773 39.9624 18.054 37.5393C18.4097 35.2521 19.8094 33.8622 21.9926 33.2018C23.8178 32.6496 25.6569 32.7117 27.4751 33.241C29.2956 33.7725 29.5885 34.212 29.4723 36.0782C29.3886 37.4151 29.2514 37.491 28.04 36.8674C26.8659 36.2646 25.6476 35.855 24.2944 35.9723C23.1947 36.0667 22.4367 36.589 22.1716 37.4611C21.8903 38.3884 22.2135 39.2536 23.19 39.8887C23.8155 40.296 24.5106 40.5998 25.1826 40.9288C25.8313 41.2464 26.5078 41.511 27.1449 41.8469C29.8792 43.2874 30.9696 45.2456 30.5813 47.9839C30.2186 50.545 28.2819 52.4641 25.4476 53.0209C24.7129 53.1659 23.9573 53.2073 23.2109 53.297H23.2156Z" fill="#357EFE"/>
<path d="M55.5146 49.5948C57.5048 49.5948 59.3835 49.6248 61.2621 49.581C62.0038 49.5649 62.3479 49.8319 62.3665 50.5475C62.3665 50.6326 62.3851 50.7178 62.3921 50.8052C62.5571 52.6783 62.3618 52.8969 60.5111 52.8969C58.0187 52.8969 55.5262 52.9015 53.0338 52.8969C51.7736 52.8946 51.4714 52.6115 51.469 51.3943C51.4621 45.6577 51.4737 39.9189 51.4551 34.1823C51.4551 33.5426 51.6597 33.2044 52.3107 33.1606C52.513 33.1468 52.7106 33.0939 52.9129 33.0824C55.3565 32.9167 55.5123 33.0594 55.5123 35.4571V48.5387C55.5123 48.8516 55.5123 49.1622 55.5123 49.5994L55.5146 49.5948Z" fill="#357EFE"/>
</g>
<defs>
<clipPath id="clip0_207_3286">
<rect width="80" height="86" fill="white"/>
</clipPath>
</defs>
</svg>
